<?xml version="1.0" encoding="UTF-8"?><svg id="a" xmlns="http://www.w3.org/2000/svg" viewBox="0 0 467 466"><defs><style>.b{fill:#44ab7e;}.c{fill:#44ab7d;}.d{fill:#9bd2ba;}.e{fill:#fefefe;}</style></defs><path class="c" d="M244,465.9h-28.99c-6.91-1.22-13.94-.97-20.9-1.63-20.66-1.97-39.87-8.99-58.6-17.37-29.62-13.25-55.02-32.43-76.75-56.42-20-22.08-35.39-47.07-45.66-75.09-3.78-10.32-7.16-20.79-9.38-31.59-2.45-11.88-2.73-23.98-3.02-36.01-.45-18.48-.3-36.98,1.46-55.42,.8-8.44,2.93-16.58,5.25-24.67,9.71-33.85,26.29-64.03,49.65-90.31C87.58,43.06,124.98,19.5,169.16,6.55c14.12-4.14,28.52-5.02,42.99-5.95,.97-.06,2.01,.26,2.86-.5h36.98c6.91,1.23,13.93,1.04,20.89,1.62,18,1.51,34.79,7.48,51.29,14.24,32.76,13.42,60.82,33.67,84.43,59.95,28.58,31.81,47.25,68.73,55.47,110.75,1.97,10.06,2.01,20.4,2.25,30.63,.45,18.96,.49,37.96-1.5,56.83-1.7,16.1-7.03,31.36-12.89,46.37-9.73,24.92-23.68,47.35-41.35,67.36-19.01,21.52-40.92,39.54-66.52,52.84-20.51,10.65-41.86,18.97-64.74,22.85-9.02,1.53-18.26,.95-27.32,2.36h-6c-.67-.62-1.33-.62-2,0Z"/><path class="e" d="M251.99,465.9c7.18-2.63,14.86-2.39,22.27-3.74,49.12-8.94,91.18-31.19,125.96-66.9,34.03-34.93,55.06-76.57,62.89-124.79,19.92-122.8-58.88-235.5-174.26-263.54-11.48-2.79-23.1-4.59-34.82-5.85-.81-.09-1.69,.01-2.04-.99C322.3,.1,392.6,.13,462.91,0c3.42,0,4.1,.67,4.09,4.09-.11,152.6-.11,305.21,0,457.81,0,3.42-.67,4.1-4.09,4.09-70.3-.13-140.61-.1-210.91-.1Z"/><path class="e" d="M215.01,.1c-7.19,2.61-14.87,2.39-22.28,3.73-47.88,8.69-89.07,30.14-123.51,64.4C32.94,104.33,10.58,147.88,3.32,198.44c-17.65,122.92,59.91,230.95,172.38,260.12,12.23,3.17,24.68,5.11,37.25,6.36,.82,.08,1.68,0,2.05,.99-70.3,0-140.61-.03-210.91,.1C.67,466.01,0,465.33,0,461.91,.11,309.3,.11,156.7,0,4.09,0,.67,.67,0,4.09,0,74.4,.13,144.7,.1,215.01,.1Z"/><path class="d" d="M244,465.9c.67-.89,1.33-1.01,2,0h-2Z"/><path class="e" d="M233.33,410.92c-26,.53-50.84-4.86-74.45-15.74-7.1-3.27-14.62-5.36-21.34-9.8-8.97-5.92-16.39-13.52-24.66-20.17-9.44-7.6-17.87-16.32-24.87-26.14-3.63-5.09-5.9-11.22-9.06-16.77-38.19-67.05-30.73-148.52,20.07-206.43,37.27-42.49,84.94-63.53,141.63-60.87,66.13,3.1,115.61,34.66,149.08,91.55,5.48,9.31,1.87,18.76-7.6,20.93-5.66,1.3-11.05-1.04-14.23-6.66-7.59-13.4-16.58-25.7-27.52-36.57-53.56-53.23-140.48-58.69-199.77-11.87-42.12,33.26-62.74,77.37-59.02,130.9,3.72,53.64,30.16,94.41,76.53,121.99,1.1,.65,2.2,1.31,3.46,1.59,1.02,.23,1.98,.68,2.88,1.22,4.88,2.94,9.08,4.76,14.02,6.81,14,5.82,28.64,8.65,43.42,9.78,21.29,1.62,42.11-.89,62.64-8.24,33.53-12,59.09-33.07,78.19-62.68,4.23-6.56,12.19-8.36,18.3-4.48,6.24,3.96,7.81,11.47,3.93,18.37-6.87,12.21-16.07,22.55-25.88,32.43-29,29.19-64.35,45.03-104.84,50.14-1.65,.21-3.29,.66-4.93,.69-5.32,.09-10.65,.03-15.97,.03Z"/><path class="e" d="M224,233.07c0,39.65,.02,79.3-.01,118.95,0,9.19-5.04,14.87-13.03,14.92-7.59,.05-12.93-5.39-12.94-13.29-.02-33.99-.08-67.97,.09-101.96,.02-4.35-.81-5.9-5.59-5.83-21.15,.29-42.32,.33-63.47-.02-5.06-.08-5.62,2.03-4.87,5.81,6.59,33.12,23.77,58.97,52.87,76.54,4.97,3,7.92,7.01,7.37,12.97-.53,5.73-3.93,9.24-9.19,11.22-3.99,1.51-7.58,.26-10.84-1.75-35.81-22.04-58.57-53.4-65.24-95.13-8.42-52.62,9.34-95.91,49.91-129.76,16.64-13.88,36.4-22.13,57.62-26.56,10.2-2.13,17.31,4.1,17.32,14.92,.03,39.65,.01,79.3,.01,118.95Z"/><path class="e" d="M268.99,302.33c0,16.33,0,32.65,0,48.98,0,10.07-4.66,15.66-13.04,15.64-7.91-.02-12.33-5.66-12.34-15.8,0-50.64,0-101.28,0-151.93,0-28.32-.02-56.64,0-84.96,.01-12.04,6.08-17,17.78-14.4,48.79,10.85,81.62,40.43,100.06,86.3,5.82,14.48,8.22,29.89,8.15,45.59-.04,8.71-5.57,14.24-14.31,14.25-27.15,.01-54.31,.09-81.46-.09-3.94-.03-4.99,1.04-4.94,4.95,.22,17.16,.09,34.32,.09,51.47Z"/><path class="b" d="M198.01,174.56c0,13.48-.11,26.96,.07,40.43,.05,3.63-.53,5.17-4.76,5.12-21.63-.24-43.26-.23-64.89,0-4.06,.04-5.01-1.46-4.34-4.87,8.01-40.38,30.84-68.84,68.72-85.08,4.84-2.08,5.18-1.74,5.19,3.46,.01,13.64,0,27.29,0,40.93Z"/><path class="b" d="M269.32,128.21c12.47,4.5,23.92,10.51,34.09,18.87,21.04,17.3,33.72,39.56,39.14,66.12,1.3,6.36,.96,6.8-5.43,6.8-21.32,0-42.63-.02-63.95,.03-2.56,0-4.29,.03-4.27-3.54,.15-28.81,.09-57.62,.11-86.43,0-.48,.15-.97,.31-1.86Z"/></svg>