<?xml version="1.0" encoding="UTF-8"?><svg id="a" xmlns="http://www.w3.org/2000/svg" viewBox="0 0 466.09 465.8"><defs><style>.b{fill:#44ab7e;}.c{fill:#44ab7d;}.d{fill:#9bd2ba;}.e{fill:#fefefe;}</style></defs><path class="c" d="M243.52,465.8h-28.99c-6.91-1.22-13.94-.97-20.9-1.63-20.66-1.97-39.87-8.99-58.6-17.37-29.62-13.25-55.02-32.43-76.75-56.42-20-22.08-35.39-47.07-45.66-75.09-3.78-10.32-7.16-20.79-9.38-31.59-2.45-11.88-2.73-23.98-3.02-36.01-.45-18.48-.3-36.98,1.46-55.42,.8-8.44,2.93-16.58,5.25-24.67,9.71-33.85,26.29-64.03,49.65-90.31C87.1,42.96,124.5,19.4,168.68,6.45c14.12-4.14,28.52-5.02,42.99-5.95,.97-.06,2.01,.26,2.86-.5h36.98c6.91,1.23,13.93,1.04,20.89,1.62,18,1.51,34.79,7.48,51.29,14.24,32.76,13.42,60.82,33.67,84.43,59.95,28.58,31.81,47.25,68.73,55.47,110.75,1.97,10.06,2.01,20.4,2.25,30.63,.45,18.96,.49,37.96-1.5,56.83-1.7,16.1-7.03,31.36-12.89,46.37-9.73,24.92-23.68,47.35-41.35,67.36-19.01,21.52-40.92,39.54-66.52,52.84-20.51,10.65-41.86,18.97-64.74,22.85-9.02,1.53-18.26,.95-27.32,2.36h-6c-.67-.62-1.33-.62-2,0h0Z"/><path class="d" d="M243.52,465.8c.67-.89,1.33-1.01,2,0h-2Z"/><path class="e" d="M232.85,410.82c-26,.53-50.84-4.86-74.45-15.74-7.1-3.27-14.62-5.36-21.34-9.8-8.97-5.92-16.39-13.52-24.66-20.17-9.44-7.6-17.87-16.32-24.87-26.14-3.63-5.09-5.9-11.22-9.06-16.77-38.19-67.05-30.73-148.52,20.07-206.43,37.27-42.49,84.94-63.53,141.63-60.87,66.13,3.1,115.61,34.66,149.08,91.55,5.48,9.31,1.87,18.76-7.6,20.93-5.66,1.3-11.05-1.04-14.23-6.66-7.59-13.4-16.58-25.7-27.52-36.57-53.56-53.23-140.48-58.69-199.77-11.87-42.12,33.26-62.74,77.37-59.02,130.9,3.72,53.64,30.16,94.41,76.53,121.99,1.1,.65,2.2,1.31,3.46,1.59,1.02,.23,1.98,.68,2.88,1.22,4.88,2.94,9.08,4.76,14.02,6.81,14,5.82,28.64,8.65,43.42,9.78,21.29,1.62,42.11-.89,62.64-8.24,33.53-12,59.09-33.07,78.19-62.68,4.23-6.56,12.19-8.36,18.3-4.48,6.24,3.96,7.81,11.47,3.93,18.37-6.87,12.21-16.07,22.55-25.88,32.43-29,29.19-64.35,45.03-104.84,50.14-1.65,.21-3.29,.66-4.93,.69-5.32,.09-10.65,.03-15.97,.03h0Z"/><path class="e" d="M223.52,232.97c0,39.65,.02,79.3,0,118.95,0,9.19-5.04,14.87-13.03,14.92-7.59,.05-12.93-5.39-12.94-13.29-.02-33.99-.08-67.97,.09-101.96,.02-4.35-.81-5.9-5.59-5.83-21.15,.29-42.32,.33-63.47-.02-5.06-.08-5.62,2.03-4.87,5.81,6.59,33.12,23.77,58.97,52.87,76.54,4.97,3,7.92,7.01,7.37,12.97-.53,5.73-3.93,9.24-9.19,11.22-3.99,1.51-7.58,.26-10.84-1.75-35.81-22.04-58.57-53.4-65.24-95.13-8.42-52.62,9.34-95.91,49.91-129.76,16.64-13.88,36.4-22.13,57.62-26.56,10.2-2.13,17.31,4.1,17.32,14.92,.03,39.65,0,79.3,0,118.95v.02Z"/><path class="e" d="M273.41,306.08v48.98c0,10.07-4.66,15.66-13.04,15.64-7.91-.02-12.33-5.66-12.34-15.8V202.97c0-28.32-.02-56.64,0-84.96,0-12.04,6.08-17,17.78-14.4,48.79,10.85,81.62,40.43,100.06,86.3,5.82,14.48,8.22,29.89,8.15,45.59-.04,8.71-5.57,14.24-14.31,14.25-27.15,0-54.31,.09-81.46-.09-3.94-.03-4.99,1.04-4.94,4.95,.22,17.16,.09,34.32,.09,51.47h0Z"/><path class="b" d="M197.53,174.46c0,13.48-.11,26.96,.07,40.43,.05,3.63-.53,5.17-4.76,5.12-21.63-.24-43.26-.23-64.89,0-4.06,.04-5.01-1.46-4.34-4.87,8.01-40.38,30.84-68.84,68.72-85.08,4.84-2.08,5.18-1.74,5.19,3.46,0,13.64,0,27.29,0,40.93h0Z"/><path class="b" d="M268.84,128.11c12.47,4.5,23.92,10.51,34.09,18.87,21.04,17.3,33.72,39.56,39.14,66.12,1.3,6.36,.96,6.8-5.43,6.8-21.32,0-42.63-.02-63.95,.03-2.56,0-4.29,.03-4.27-3.54,.15-28.81,.09-57.62,.11-86.43,0-.48,.15-.97,.31-1.86h0Z"/></svg>